<?xml version="1.0" standalone="no"?>
<!DOCTYPE svg PUBLIC "-//W3C//DTD SVG 20010904//EN"
 "http://www.w3.org/TR/2001/REC-SVG-20010904/DTD/svg10.dtd">
<svg version="1.0" xmlns="http://www.w3.org/2000/svg"
 width="700.000000pt" height="700.000000pt" viewBox="0 0 700.000000 700.000000"
 preserveAspectRatio="xMidYMid meet">
<metadata>
Created by potrace 1.11, written by Peter Selinger 2001-2013
</metadata>
<g transform="translate(0.000000,700.000000) scale(0.100000,-0.100000)"
fill="#000000" stroke="none">
<path d="M3047 6984 c-1 -1 -56 -5 -122 -8 -66 -4 -151 -11 -190 -17 -112 -15
-140 -19 -160 -23 -11 -3 -56 -12 -100 -21 -287 -59 -622 -186 -881 -335 -245
-141 -450 -297 -650 -495 -324 -321 -552 -666 -717 -1085 -56 -143 -134 -408
-152 -520 -3 -19 -8 -46 -10 -60 -10 -50 -13 -66 -19 -121 -4 -31 -8 -65 -10
-76 -9 -42 -19 -266 -18 -384 1 -135 11 -270 27 -379 2 -14 7 -45 10 -70 36
-258 137 -583 266 -855 329 -695 943 -1267 1659 -1548 253 -99 397 -137 730
-192 78 -13 221 -20 425 -20 247 0 313 5 525 40 210 33 508 124 720 219 181
81 436 225 545 308 6 4 55 43 110 86 55 43 105 81 112 85 8 5 266 -246 731
-711 789 -789 755 -759 866 -750 155 13 250 175 186 316 -15 33 -202 226 -735
759 -581 581 -713 718 -706 731 5 9 18 26 28 37 10 11 41 49 69 85 343 442
564 991 628 1560 13 117 15 590 3 660 -3 14 -8 48 -11 75 -10 74 -16 112 -32
195 -8 41 -16 85 -19 97 -33 177 -146 487 -257 708 -69 137 -229 401 -258 425
-3 3 -27 34 -54 70 -75 101 -140 175 -276 310 -392 393 -890 675 -1425 809
-134 33 -269 59 -348 67 -29 3 -63 7 -77 9 -44 8 -407 24 -413 19z m358 -468
c22 -3 60 -8 85 -11 78 -10 282 -53 374 -80 324 -94 658 -269 926 -484 115
-92 291 -267 380 -376 35 -44 68 -84 73 -90 88 -106 244 -375 318 -550 87
-206 165 -473 184 -634 4 -30 9 -63 11 -75 28 -144 24 -535 -7 -736 -31 -199
-101 -457 -169 -615 -330 -772 -960 -1328 -1757 -1549 -50 -14 -109 -29 -130
-32 -21 -3 -41 -8 -44 -10 -10 -6 -209 -35 -289 -42 -149 -13 -498 -5 -584 13
-11 2 -39 6 -61 9 -99 12 -359 76 -460 113 -289 107 -535 241 -755 412 -363
281 -653 660 -828 1081 -59 143 -125 358 -146 475 -3 17 -8 41 -11 55 -2 13
-7 42 -10 65 -3 22 -8 47 -10 55 -25 100 -25 678 0 720 2 3 6 34 10 70 4 36 9
68 11 71 2 4 6 22 9 40 16 100 73 290 129 434 92 235 242 494 403 695 70 89
294 317 351 360 19 14 41 32 50 41 32 30 172 130 269 191 88 54 322 178 338
178 3 0 25 9 48 19 122 55 355 124 527 155 135 25 141 25 220 32 41 4 77 8 79
10 6 5 422 -4 466 -10z"/>
<path d="M3857 5684 c-1 -1 -33 -5 -71 -9 -38 -3 -79 -11 -92 -16 -13 -4 -24
-6 -24 -4 0 7 -140 -43 -180 -65 -145 -76 -178 -102 -370 -292 -185 -182 -204
-209 -204 -292 -1 -104 49 -180 145 -220 44 -19 134 -15 177 8 18 9 104 87
191 172 176 174 209 198 301 232 330 120 679 -123 682 -473 0 -44 -5 -98 -11
-120 -6 -22 -10 -43 -10 -48 0 -4 -15 -36 -32 -70 -27 -50 -85 -115 -313 -343
-248 -249 -289 -285 -346 -312 -82 -39 -147 -54 -230 -54 -150 1 -257 49 -380
173 -99 100 -125 115 -201 118 -174 7 -284 -168 -207 -328 30 -61 168 -199
260 -259 218 -142 465 -188 735 -138 60 11 203 67 265 103 103 59 180 127 445
394 266 268 296 301 347 389 213 363 164 834 -118 1137 -188 202 -412 305
-689 316 -37 2 -69 2 -70 1z"/>
<path d="M2810 4658 c-177 -13 -346 -74 -488 -175 -101 -71 -619 -594 -675
-680 -109 -169 -157 -324 -161 -518 -10 -444 289 -840 718 -951 110 -29 263
-37 389 -21 132 16 316 95 437 186 84 64 362 346 386 391 24 47 24 143 0 192
-53 110 -186 160 -294 112 -26 -12 -104 -81 -209 -184 -138 -136 -180 -171
-235 -198 -152 -73 -303 -74 -453 -2 -142 68 -251 207 -280 357 -24 123 8 276
79 382 47 70 520 537 587 581 79 51 157 73 259 74 91 1 121 -4 187 -28 85 -30
167 -91 234 -172 91 -111 244 -119 345 -17 58 57 77 180 40 252 -26 49 -113
147 -183 203 -198 161 -430 234 -683 216z"/>
</g>
</svg>
