<svg xmlns="http://www.w3.org/2000/svg" viewBox="0 0 106 106" fill="none" stroke="currentColor" stroke-width="6" stroke-linecap="round" stroke-linejoin="round">
    <path d="M48.21 3.76c-24.55 0-44.45 19.9-44.45 44.45 0 24.54 19.9 44.44 44.45 44.44 24.54 0 44.44-19.9 44.44-44.44 0-24.55-19.9-44.45-44.44-44.45z"/>
    <path d="M103.76 103.76L79.6 79.6"/>
    <path d="M44.45 48.67c3.76 5.03 10.89 6.06 15.92 2.3.43-.33.84-.68 1.23-1.07l6.82-6.82c4.36-4.52 4.24-11.72-.28-16.08a11.364 11.364 0 00-15.8 0c-.26.26-1.56 1.56-3.91 3.89"/>
    <path d="M53.55 44.12c-3.76-5.02-10.89-6.05-15.92-2.29-.43.33-.85.68-1.23 1.07l-6.82 6.82c-4.37 4.52-4.24 11.72.28 16.08 4.4 4.25 11.39 4.25 15.8 0 .26-.26 1.55-1.56 3.88-3.89"/>
</svg>
