<?xml version="1.0" encoding="UTF-8" standalone="no"?>
<!DOCTYPE svg PUBLIC "-//W3C//DTD SVG 1.1//EN" "http://www.w3.org/Graphics/SVG/1.1/DTD/svg11.dtd">
<svg version="1.1" xmlns="http://www.w3.org/2000/svg" xmlns:xlink="http://www.w3.org/1999/xlink" preserveAspectRatio="xMidYMid meet" viewBox="0 0 106 106" width="106" height="106"><defs><path d="M48.21 3.76C23.66 3.76 3.76 23.66 3.76 48.21C3.76 72.75 23.66 92.65 48.21 92.65C72.75 92.65 92.65 72.75 92.65 48.21C92.65 23.66 72.75 3.76 48.21 3.76Z" id="b5d8TAJ0J"></path><path d="M103.76 103.76L79.6 79.6" id="a2sTQmbI"></path><path d="M44.45 48.67C48.21 53.7 55.34 54.73 60.37 50.97C60.8 50.64 61.21 50.29 61.6 49.9C62.28 49.22 67.74 43.76 68.42 43.08C72.78 38.56 72.66 31.36 68.14 27C63.73 22.74 56.75 22.74 52.34 27C52.08 27.26 50.78 28.56 48.43 30.89" id="eIC3hEAuS"></path><path d="M53.55 44.12C49.79 39.1 42.66 38.07 37.63 41.83C37.2 42.16 36.78 42.51 36.4 42.9C35.72 43.58 30.26 49.04 29.58 49.72C25.21 54.24 25.34 61.44 29.86 65.8C34.26 70.05 41.25 70.05 45.66 65.8C45.92 65.54 47.21 64.24 49.54 61.91" id="byA9qLkww"></path></defs><g><g><g><g><use xlink:href="#b5d8TAJ0J" opacity="1" fill="#000000" fill-opacity="0"></use><g><use xlink:href="#b5d8TAJ0J" opacity="1" fill-opacity="0" stroke="#000000" stroke-width="7" stroke-opacity="1"></use></g></g><g><use xlink:href="#a2sTQmbI" opacity="1" fill="#000000" fill-opacity="0"></use><g><use xlink:href="#a2sTQmbI" opacity="1" fill-opacity="0" stroke="#000000" stroke-width="7" stroke-opacity="1"></use></g></g><g><use xlink:href="#eIC3hEAuS" opacity="1" fill="#000000" fill-opacity="0"></use><g><use xlink:href="#eIC3hEAuS" opacity="1" fill-opacity="0" stroke="#000000" stroke-width="7" stroke-opacity="1"></use></g></g><g><use xlink:href="#byA9qLkww" opacity="1" fill="#000000" fill-opacity="0"></use><g><use xlink:href="#byA9qLkww" opacity="1" fill-opacity="0" stroke="#000000" stroke-width="7" stroke-opacity="1"></use></g></g></g></g></g></svg>